<svg xmlns="http://www.w3.org/2000/svg" viewBox="0 0 800 800" width="800" height="800">
<defs>
<linearGradient id="bg" x1="0" y1="0" x2="0" y2="1">
<stop offset="0" stop-color="#FBFBFA"/><stop offset="1" stop-color="#EDEFED"/>
</linearGradient>
<radialGradient id="sh" cx="0.5" cy="0.5" r="0.5">
<stop offset="0" stop-color="#0B1E3D" stop-opacity="0.16"/><stop offset="1" stop-color="#0B1E3D" stop-opacity="0"/>
</radialGradient>
</defs>
<rect width="800" height="800" fill="url(#bg)"/>
<ellipse cx="400" cy="706" rx="200" ry="22" fill="url(#sh)"/><rect x="242" y="130" width="316" height="562" rx="22" fill="#31384A"/><rect x="242" y="130" width="316" height="86" rx="22" fill="#0E7A4F"/><circle cx="318.2" cy="173" r="11.440000000000001" fill="none" stroke="#FFFFFF" stroke-width="3.52"/><path d="M300.16,173 L319.52,173" stroke="#FFFFFF" stroke-width="3.52" stroke-linecap="round"/><path d="M313.8,167.28 L320.4,173 L313.8,178.72" fill="none" stroke="#FFFFFF" stroke-width="3.52" stroke-linecap="round" stroke-linejoin="round"/><text x="430" y="184" font-family="DejaVu Sans, Helvetica, Arial, sans-serif" font-size="30" font-weight="700" fill="#FFFFFF" text-anchor="middle">IntoBank</text><rect x="268" y="240" width="264" height="176" rx="10" fill="#0D1015"/><rect x="282" y="254" width="236" height="148" rx="6" fill="#15A66A" opacity="0.22"/><text x="400" y="330" font-family="DejaVu Sans, Helvetica, Arial, sans-serif" font-size="24" font-weight="700" fill="#FFFFFF" text-anchor="middle">Welcome</text><text x="400" y="364" font-family="DejaVu Sans, Helvetica, Arial, sans-serif" font-size="17" fill="#BFE6D2" text-anchor="middle">Insert your card</text><rect x="306" y="440" width="52" height="32" rx="6" fill="#464E62"/><rect x="374" y="440" width="52" height="32" rx="6" fill="#464E62"/><rect x="442" y="440" width="52" height="32" rx="6" fill="#464E62"/><rect x="306" y="484" width="52" height="32" rx="6" fill="#464E62"/><rect x="374" y="484" width="52" height="32" rx="6" fill="#464E62"/><rect x="442" y="484" width="52" height="32" rx="6" fill="#464E62"/><rect x="306" y="528" width="52" height="32" rx="6" fill="#464E62"/><rect x="374" y="528" width="52" height="32" rx="6" fill="#464E62"/><rect x="442" y="528" width="52" height="32" rx="6" fill="#464E62"/><rect x="306" y="572" width="52" height="32" rx="6" fill="#464E62"/><rect x="374" y="572" width="52" height="32" rx="6" fill="#464E62"/><rect x="442" y="572" width="52" height="32" rx="6" fill="#464E62"/><rect x="268" y="628" width="180" height="16" rx="8" fill="#12151B"/><rect x="470" y="614" width="62" height="44" rx="6" fill="#12151B"/><rect x="470" y="618" width="62" height="8" rx="4" fill="#0E7A4F"/>
</svg>