<svg xmlns="http://www.w3.org/2000/svg" viewBox="0 0 800 800" width="800" height="800">
<defs>
<linearGradient id="bg" x1="0" y1="0" x2="0" y2="1">
<stop offset="0" stop-color="#FBFBFA"/><stop offset="1" stop-color="#F5F6F4"/>
</linearGradient>
<radialGradient id="sh" cx="0.5" cy="0.5" r="0.5">
<stop offset="0" stop-color="#0B1E3D" stop-opacity="0.16"/><stop offset="1" stop-color="#0B1E3D" stop-opacity="0"/>
</radialGradient>
</defs>
<rect width="800" height="800" fill="url(#bg)"/>
<ellipse cx="400" cy="640" rx="210" ry="26" fill="url(#sh)"/><path d="M332,208 L262,252 L226,352 L292,382 L292,596 Q400,620 508,596 L508,382 L574,352 L538,252 L468,208 Q400,254 332,208 Z" fill="#0E7A4F" stroke="#0A5C3B" stroke-width="3"/><path d="M348,212 Q400,272 452,212" fill="none" stroke="#0A5C3B" stroke-width="7"/><path d="M292,596 Q400,620 508,596" fill="none" stroke="#0A5C3B" stroke-width="3" opacity="0.6"/><rect x="296" y="374" width="52" height="52" rx="8.84" fill="#0D3A2B"/><rect x="305.88" y="392.2" width="6.24" height="23.920000000000016" rx="1.2480000000000002" fill="#FFFFFF"/><circle cx="309.0" cy="386.48" r="4.16" fill="#C9963B"/><rect x="317.32" y="392.2" width="6.24" height="23.920000000000016" rx="1.2480000000000002" fill="#FFFFFF"/><rect x="328.24" y="392.2" width="6.24" height="23.920000000000016" rx="1.2480000000000002" fill="#FFFFFF"/><path d="M331.98400000000004,392.2 L331.98400000000004,404.15999999999997 A7.415200000000005,5.980000000000004 0 0 0 331.98400000000004,392.2 Z" fill="#FFFFFF"/><path d="M331.98400000000004,404.15999999999997 L331.98400000000004,416.12 A8.372000000000005,5.980000000000004 0 0 0 331.98400000000004,404.15999999999997 Z" fill="#FFFFFF"/><text x="456" y="410" font-family="DejaVu Sans, Helvetica, Arial, sans-serif" font-size="28" font-weight="700" fill="#FFFFFF" text-anchor="middle">IntoBank</text>
</svg>